<svg width="129" height="27" viewBox="0 0 129 27" fill="none" xmlns="http://www.w3.org/2000/svg">
<path d="M2.53906 5.125C2.90365 5.125 3.21615 5.2487 3.47656 5.49609C3.73698 5.73047 3.8737 6.02995 3.88672 6.39453V11.1016C3.8737 11.6354 3.90625 12.1302 3.98438 12.5859C4.07552 13.0286 4.28385 13.4258 4.60938 13.7773C4.9349 14.1289 5.34505 14.3177 5.83984 14.3438H12.0898C12.4544 14.3568 12.7539 14.4935 12.9883 14.7539C13.2357 15.0143 13.3594 15.3268 13.3594 15.6914C13.3464 16.043 13.2161 16.3424 12.9688 16.5898C12.7344 16.8242 12.4414 16.9479 12.0898 16.9609H5.17578C4.26432 16.9089 3.50911 16.6029 2.91016 16.043C2.32422 15.4701 1.90104 14.7734 1.64062 13.9531C1.39323 13.1328 1.26302 12.2604 1.25 11.3359V6.39453C1.26302 6.04297 1.39323 5.75 1.64062 5.51562C1.88802 5.26823 2.1875 5.13802 2.53906 5.125ZM19.6094 13.9336C19.6094 13.569 19.7331 13.263 19.9805 13.0156C20.2409 12.7552 20.5534 12.625 20.918 12.625H23.9062L23.3984 11.1797C23.1901 10.6458 22.9818 10.1445 22.7734 9.67578C22.5781 9.19401 22.3503 8.75781 22.0898 8.36719C21.8555 7.97656 21.5885 7.76823 21.2891 7.74219C20.9766 7.76823 20.6966 7.97656 20.4492 8.36719C20.2018 8.75781 19.974 9.19401 19.7656 9.67578C19.5703 10.1445 19.3685 10.6458 19.1602 11.1797L17.3047 16.2578C17.1745 16.5312 17.0052 16.7591 16.7969 16.9414C16.6016 17.1107 16.3021 17.1953 15.8984 17.1953C15.5208 17.1953 15.2083 17.0651 14.9609 16.8047C14.7266 16.5443 14.6224 16.2318 14.6484 15.8672C14.6615 15.6979 14.7005 15.5417 14.7656 15.3984L16.9141 9.85156C17.513 8.39323 18.112 7.21484 18.7109 6.31641C19.2969 5.43099 20.1562 4.98177 21.2891 4.96875C22.4089 4.98177 23.2617 5.43099 23.8477 6.31641C24.4466 7.1888 25.0456 8.36719 25.6445 9.85156L27.793 15.3984C27.8581 15.5417 27.8971 15.6979 27.9102 15.8672C27.9362 16.2318 27.8255 16.5443 27.5781 16.8047C27.3438 17.0651 27.0378 17.1953 26.6602 17.1953C26.2305 17.1953 25.9115 17.1107 25.7031 16.9414C25.5078 16.7591 25.3451 16.5312 25.2148 16.2578L24.8438 15.2422H20.918C20.5534 15.2422 20.2474 15.112 20 14.8516C19.7396 14.6042 19.6094 14.2982 19.6094 13.9336ZM32.5 15.9648C32.4219 16.7461 31.9922 17.1693 31.2109 17.2344C30.8464 17.2344 30.5273 17.1172 30.2539 16.8828C29.9935 16.6354 29.8633 16.3294 29.8633 15.9648V6.70703C29.8763 6.34245 30.013 6.04297 30.2734 5.80859C30.5339 5.5612 30.8464 5.4375 31.2109 5.4375H32.168H34.5703H39.3945C39.4727 5.4375 39.5508 5.44401 39.6289 5.45703H39.7461C40.6576 5.48307 41.4062 5.69141 41.9922 6.08203C42.5781 6.47266 43.0013 6.92188 43.2617 7.42969C43.5221 7.92448 43.6523 8.42578 43.6523 8.93359C43.6523 9.45443 43.5221 9.96875 43.2617 10.4766C43.0143 10.9714 42.5911 11.4141 41.9922 11.8047C41.4062 12.1953 40.6576 12.4036 39.7461 12.4297H36.3086C36.4128 13.0807 36.6276 13.5625 36.9531 13.875C37.2656 14.1875 37.6628 14.3438 38.1445 14.3438H42.3633C42.7279 14.3568 43.0273 14.4935 43.2617 14.7539C43.5091 15.0143 43.6328 15.3268 43.6328 15.6914C43.6198 16.043 43.4896 16.3424 43.2422 16.5898C43.0078 16.8242 42.7148 16.9479 42.3633 16.9609H37.793C36.8294 16.974 35.957 16.5964 35.1758 15.8281C34.3945 15.0599 33.9193 14.1484 33.75 13.0938C33.5156 11.9219 33.3984 11.2643 33.3984 11.1211C33.3984 10.7565 33.5221 10.4505 33.7695 10.2031C34.0299 9.94271 34.3424 9.8125 34.707 9.8125H39.8633C40.1107 9.79948 40.3125 9.7474 40.4688 9.65625C40.638 9.55208 40.7617 9.44141 40.8398 9.32422C40.918 9.19401 40.957 9.0638 40.957 8.93359C40.957 8.80339 40.918 8.67969 40.8398 8.5625C40.7617 8.43229 40.638 8.32161 40.4688 8.23047C40.3125 8.1263 40.1107 8.06771 39.8633 8.05469H34.5703H33.0078C32.6693 8.06771 32.5 8.23698 32.5 8.5625V15.9648ZM50.1562 13.9336C50.1562 13.569 50.2799 13.263 50.5273 13.0156C50.7878 12.7552 51.1003 12.625 51.4648 12.625H54.4531L53.9453 11.1797C53.737 10.6458 53.5286 10.1445 53.3203 9.67578C53.125 9.19401 52.8971 8.75781 52.6367 8.36719C52.4023 7.97656 52.1354 7.76823 51.8359 7.74219C51.5234 7.76823 51.2435 7.97656 50.9961 8.36719C50.7487 8.75781 50.5208 9.19401 50.3125 9.67578C50.1172 10.1445 49.9154 10.6458 49.707 11.1797L47.8516 16.2578C47.7214 16.5312 47.5521 16.7591 47.3438 16.9414C47.1484 17.1107 46.849 17.1953 46.4453 17.1953C46.0677 17.1953 45.7552 17.0651 45.5078 16.8047C45.2734 16.5443 45.1693 16.2318 45.1953 15.8672C45.2083 15.6979 45.2474 15.5417 45.3125 15.3984L47.4609 9.85156C48.0599 8.39323 48.6589 7.21484 49.2578 6.31641C49.8438 5.43099 50.7031 4.98177 51.8359 4.96875C52.9557 4.98177 53.8086 5.43099 54.3945 6.31641C54.9935 7.1888 55.5924 8.36719 56.1914 9.85156L58.3398 15.3984C58.4049 15.5417 58.444 15.6979 58.457 15.8672C58.4831 16.2318 58.3724 16.5443 58.125 16.8047C57.8906 17.0651 57.5846 17.1953 57.207 17.1953C56.7773 17.1953 56.4583 17.1107 56.25 16.9414C56.0547 16.7591 55.8919 16.5312 55.7617 16.2578L55.3906 15.2422H51.4648C51.1003 15.2422 50.7943 15.112 50.5469 14.8516C50.2865 14.6042 50.1562 14.2982 50.1562 13.9336ZM64.1406 15.9258C63.5417 15.0273 62.9427 13.849 62.3438 12.3906L60.1953 6.84375C60.1302 6.70052 60.0911 6.54427 60.0781 6.375C60.0521 6.01042 60.1562 5.69792 60.3906 5.4375C60.638 5.17708 60.9505 5.04688 61.3281 5.04688C61.7318 5.04688 62.0312 5.13802 62.2266 5.32031C62.4349 5.48958 62.6042 5.71094 62.7344 5.98438L64.5898 11.0625C64.7982 11.5964 65 12.1042 65.1953 12.5859C65.4036 13.0547 65.6315 13.4844 65.8789 13.875C66.1263 14.2656 66.4062 14.474 66.7188 14.5C67.0182 14.474 67.2852 14.2656 67.5195 13.875C67.7799 13.4844 68.0078 13.0547 68.2031 12.5859C68.4115 12.1042 68.6198 11.5964 68.8281 11.0625L70.6445 5.98438C70.7747 5.71094 70.9375 5.48958 71.1328 5.32031C71.3411 5.13802 71.6602 5.04688 72.0898 5.04688C72.4674 5.04688 72.7734 5.17708 73.0078 5.4375C73.2552 5.69792 73.3659 6.01042 73.3398 6.375C73.3268 6.54427 73.2878 6.70052 73.2227 6.84375L71.0742 12.3906C70.4753 13.875 69.8763 15.0599 69.2773 15.9453C68.6914 16.8177 67.8385 17.2604 66.7188 17.2734C65.5859 17.2604 64.7266 16.8112 64.1406 15.9258ZM78.9844 5.4375H79.8828H86.5234C86.888 5.45052 87.1875 5.58724 87.4219 5.84766C87.6693 6.10807 87.793 6.42057 87.793 6.78516C87.7279 7.56641 87.3047 7.98958 86.5234 8.05469H79.6484C79.1536 8.08073 78.7435 8.26953 78.418 8.62109C78.0924 8.97266 77.8516 9.3763 77.6953 9.83203C77.5521 10.2747 77.4805 10.7305 77.4805 11.1992C77.4805 11.668 77.5521 12.1302 77.6953 12.5859C77.8516 13.0286 78.0924 13.4258 78.418 13.7773C78.7435 14.1289 79.1536 14.3177 79.6484 14.3438H86.5234C86.888 14.3568 87.1875 14.4935 87.4219 14.7539C87.6693 15.0143 87.793 15.3268 87.793 15.6914C87.7799 16.043 87.6497 16.3424 87.4023 16.5898C87.168 16.8242 86.875 16.9479 86.5234 16.9609H79.3555H78.9844C78.0729 16.9089 77.3177 16.5638 76.7188 15.9258C76.1328 15.2747 75.7096 14.5391 75.4492 13.7188C75.2018 12.8984 75.0781 12.0586 75.0781 11.1992C75.0781 10.3398 75.2083 9.5 75.4688 8.67969C75.7292 7.85938 76.1523 7.13021 76.7383 6.49219C77.3242 5.84115 78.0729 5.48958 78.9844 5.4375ZM87.7539 11.1211C87.7539 11.4857 87.6237 11.7917 87.3633 12.0391C87.1159 12.2995 86.8099 12.4297 86.4453 12.4297H80.5469C80.1823 12.4297 79.8698 12.306 79.6094 12.0586C79.362 11.7982 79.2383 11.4857 79.2383 11.1211C79.2383 10.7565 79.362 10.444 79.6094 10.1836C79.8698 9.9362 80.1823 9.8125 80.5469 9.8125H86.4453C86.8099 9.8125 87.1159 9.94271 87.3633 10.2031C87.6237 10.4505 87.7539 10.7565 87.7539 11.1211ZM91.0547 5.125C91.4193 5.125 91.7318 5.2487 91.9922 5.49609C92.2526 5.73047 92.3893 6.02995 92.4023 6.39453V11.1016C92.3893 11.6354 92.4219 12.1302 92.5 12.5859C92.5911 13.0286 92.7995 13.4258 93.125 13.7773C93.4505 14.1289 93.8607 14.3177 94.3555 14.3438H100.605C100.97 14.3568 101.27 14.4935 101.504 14.7539C101.751 15.0143 101.875 15.3268 101.875 15.6914C101.862 16.043 101.732 16.3424 101.484 16.5898C101.25 16.8242 100.957 16.9479 100.605 16.9609H93.6914C92.7799 16.9089 92.0247 16.6029 91.4258 16.043C90.8398 15.4701 90.4167 14.7734 90.1562 13.9531C89.9089 13.1328 89.7786 12.2604 89.7656 11.3359V6.39453C89.7786 6.04297 89.9089 5.75 90.1562 5.51562C90.4036 5.26823 90.7031 5.13802 91.0547 5.125Z" fill="white"/>
</svg>
