<svg width="306" height="61" viewBox="0 0 306 61" fill="none" xmlns="http://www.w3.org/2000/svg">
<path d="M14.0908 53.5215C13.6924 57.5059 11.501 59.6641 7.5166 59.9961C5.65723 59.9961 4.03027 59.3984 2.63574 58.2031C1.30762 56.9414 0.643555 55.3809 0.643555 53.5215V6.50586C0.709961 4.64648 1.40723 3.11914 2.73535 1.92383C4.06348 0.662109 5.65723 0.03125 7.5166 0.03125H49.3525C55.1963 0.230469 59.6123 1.52539 62.6006 3.91602C65.5889 6.24023 67.7471 8.89648 69.0752 11.8848C70.4033 14.873 71.0674 17.8945 71.0674 20.9492C71.0674 24.1367 70.4033 27.2246 69.0752 30.2129C67.8135 33.2012 65.6553 35.8906 62.6006 38.2812C59.6123 40.6055 55.7939 41.7344 51.1455 41.668H26.0439C24.1846 41.668 22.624 41.0039 21.3623 39.6758C20.0342 38.4141 19.3701 36.8535 19.3701 34.9941C19.3701 33.1348 20.001 31.5742 21.2627 30.3125C22.5908 28.9844 24.1846 28.3203 26.0439 28.3203H51.7432C53.0049 28.3203 54.0342 27.9219 54.8311 27.125C55.6943 26.2617 56.3252 25.2988 56.7236 24.2363C57.1221 23.1074 57.3213 21.9785 57.3213 20.8496C57.3213 19.7871 57.1221 18.7246 56.7236 17.6621C56.3252 16.5332 55.6943 15.5703 54.8311 14.7734C54.0342 13.9102 53.0049 13.4453 51.7432 13.3789H16.6807C14.9541 13.4453 14.0908 14.3086 14.0908 15.9688V53.5215ZM100.153 0.03125H104.735H138.603C140.462 0.0976562 141.989 0.794922 143.185 2.12305C144.446 3.45117 145.077 5.04492 145.077 6.9043C144.745 10.8887 142.587 13.0469 138.603 13.3789H103.54C101.017 13.5117 98.9248 14.4746 97.2646 16.2676C95.6045 18.0605 94.376 20.1191 93.5791 22.4434C92.8486 24.7012 92.4834 27.0254 92.4834 29.416C92.4834 31.8066 92.8486 34.1641 93.5791 36.4883C94.376 38.7461 95.6045 40.7715 97.2646 42.5645C98.9248 44.3574 101.017 45.3203 103.54 45.4531H138.603C140.462 45.5195 141.989 46.2168 143.185 47.5449C144.446 48.873 145.077 50.4668 145.077 52.3262C145.011 54.1191 144.347 55.6465 143.085 56.9082C141.89 58.1035 140.396 58.7344 138.603 58.8008H102.046H100.153C95.5049 58.5352 91.6533 56.7754 88.5986 53.5215C85.6104 50.2012 83.4521 46.4492 82.124 42.2656C80.8623 38.082 80.2314 33.7988 80.2314 29.416C80.2314 25.0332 80.8955 20.75 82.2236 16.5664C83.5518 12.3828 85.71 8.66406 88.6982 5.41016C91.6865 2.08984 95.5049 0.296875 100.153 0.03125ZM144.878 29.0176C144.878 30.877 144.214 32.4375 142.886 33.6992C141.624 35.0273 140.063 35.6914 138.204 35.6914H108.122C106.263 35.6914 104.669 35.0605 103.341 33.7988C102.079 32.4707 101.448 30.877 101.448 29.0176C101.448 27.1582 102.079 25.5645 103.341 24.2363C104.669 22.9746 106.263 22.3438 108.122 22.3438H138.204C140.063 22.3438 141.624 23.0078 142.886 24.3359C144.214 25.5977 144.878 27.1582 144.878 29.0176ZM168.485 53.5215C168.087 57.5059 165.896 59.6641 161.911 59.9961C160.052 59.9961 158.425 59.3984 157.03 58.2031C155.702 56.9414 155.038 55.3809 155.038 53.5215V6.50586C155.104 4.64648 155.802 3.11914 157.13 1.92383C158.458 0.662109 160.052 0.03125 161.911 0.03125H203.747C209.591 0.230469 214.007 1.52539 216.995 3.91602C219.983 6.24023 222.142 8.89648 223.47 11.8848C224.798 14.873 225.462 17.8945 225.462 20.9492C225.462 24.1367 224.798 27.2246 223.47 30.2129C222.208 33.2012 220.05 35.8906 216.995 38.2812C214.007 40.6055 210.188 41.7344 205.54 41.668H180.438C178.579 41.668 177.019 41.0039 175.757 39.6758C174.429 38.4141 173.765 36.8535 173.765 34.9941C173.765 33.1348 174.396 31.5742 175.657 30.3125C176.985 28.9844 178.579 28.3203 180.438 28.3203H206.138C207.399 28.3203 208.429 27.9219 209.226 27.125C210.089 26.2617 210.72 25.2988 211.118 24.2363C211.517 23.1074 211.716 21.9785 211.716 20.8496C211.716 19.7871 211.517 18.7246 211.118 17.6621C210.72 16.5332 210.089 15.5703 209.226 14.7734C208.429 13.9102 207.399 13.4453 206.138 13.3789H171.075C169.349 13.4453 168.485 14.3086 168.485 15.9688V53.5215ZM234.128 6.70508C234.128 4.8457 234.759 3.28516 236.021 2.02344C237.349 0.695312 238.942 0.03125 240.802 0.03125H298.774C300.634 0.03125 302.228 0.662109 303.556 1.92383C304.817 3.25195 305.448 4.8457 305.448 6.70508C305.448 8.56445 304.784 10.1582 303.456 11.4863C302.194 12.748 300.634 13.3789 298.774 13.3789H276.562V53.7207C276.163 57.7051 273.972 59.8633 269.987 60.1953C268.128 60.1953 266.501 59.5977 265.106 58.4023C263.778 57.1406 263.114 55.5801 263.114 53.7207V13.3789H240.802C238.942 13.3789 237.382 12.7148 236.12 11.3867C234.792 10.125 234.128 8.56445 234.128 6.70508Z" fill="#F8F9FA"/>
</svg>
