<svg xmlns="http://www.w3.org/2000/svg" viewBox="0 0 394.99 398.44"><defs><style>.cls-1{isolation:isolate;}.cls-2{fill:#d2d4db;}.cls-16,.cls-3,.cls-6{fill:none;stroke:#cdc2dd;stroke-linecap:round;stroke-linejoin:round;}.cls-3{stroke-width:0.43px;}.cls-4{fill:#cdc2dd;}.cls-5{fill:#dadce4;}.cls-6{stroke-width:0.73px;}.cls-11,.cls-7{fill:#fff;}.cls-7{stroke:#5b75c2;stroke-miterlimit:10;}.cls-8{fill:#d2daff;}.cls-9{fill:#5b75c2;}.cls-10{fill:#c4c4c3;}.cls-12{fill:#dfdfe0;}.cls-13{fill:#eae9e5;}.cls-14{fill:#7ab4f5;}.cls-15{fill:#d6f0fe;opacity:0.52;mix-blend-mode:lighten;}.cls-16{stroke-width:3.76px;}</style></defs><g class="cls-1"><g id="OBJECTS"><path class="cls-2" d="M69.31,261.67c-1.73-2.08-5-2.15-7.06-3.85-2.47-2-2.75-5.6-2.84-8.79q-.18-7.25-.37-14.5a11.86,11.86,0,0,1,.5-4.64,4,4,0,0,1,3.51-2.69c3,.07,3.9,4.13,5.8,6.51,3.3,4.12,10.55,3.36,13.5,7.74,2.27,3.38.81,8.26,3,11.71s7,4.06,10,6.79,3.8,7.37,4.3,11.54c.22,1.87.4,3.94-.73,5.44s-3.44,1.95-5.43,2.17c-4.44.49-9,1-13.32-.2s-8.37-4.39-9.17-8.78C70.4,267.25,71.18,263.91,69.31,261.67Z" transform="translate(-59.02 -60.37)"/><path class="cls-3" d="M62.11,248.82l10.17,4.67" transform="translate(-59.02 -60.37)"/><path class="cls-3" d="M74.33,242.32a118,118,0,0,0,4.85,17.09" transform="translate(-59.02 -60.37)"/><path class="cls-3" d="M76.66,270.9l6.08,1.43c3.44.81,6.88,1.63,10.35,2.36" transform="translate(-59.02 -60.37)"/><path class="cls-3" d="M89.69,261.39a72.74,72.74,0,0,0,4,12" transform="translate(-59.02 -60.37)"/><path class="cls-3" d="M81.13,253.94a84.78,84.78,0,0,0,3.63,12.25" transform="translate(-59.02 -60.37)"/><path class="cls-3" d="M74.07,265.89a78,78,0,0,0,10.25.62" transform="translate(-59.02 -60.37)"/><path class="cls-3" d="M63,240.14a43.15,43.15,0,0,0,6.23,6.79" transform="translate(-59.02 -60.37)"/><path class="cls-3" d="M68.08,237.56a95.59,95.59,0,0,1,2,10.34" transform="translate(-59.02 -60.37)"/><path class="cls-4" d="M82,265.41A75.76,75.76,0,0,1,63,233.1a29.75,29.75,0,0,0,2.16,4.7c.77,1.58,1.59,3.14,2.44,4.68a100.77,100.77,0,0,0,5.63,8.93,102.5,102.5,0,0,0,30.65,28.64q2,1.17,3.94,2.26c1,.55,3.16,1.15,3.53,2.34.3.94-.58,1.15-1.35,1.11a4.8,4.8,0,0,1-2.32-1C98.64,278.94,89.54,273,82,265.41Z" transform="translate(-59.02 -60.37)"/><path class="cls-4" d="M69.65,290.6c-.52-2.37,1.92-3.7,4.33-3.9,3.14-.25,6.55,1.37,8.82,2.21a76.11,76.11,0,0,1,9,4.52c-4.31-.19-9.39.6-14.4.83a11.59,11.59,0,0,1-4.58-.52A5.18,5.18,0,0,1,69.65,290.6Z" transform="translate(-59.02 -60.37)"/><path class="cls-4" d="M95,273.41a2.78,2.78,0,0,1,1.76,1,5.24,5.24,0,0,1,1,4.18,16.15,16.15,0,0,1-1.45,4.19q-2.4,5.38-4.45,10.91a78.11,78.11,0,0,1-1.25-9.39,18,18,0,0,1,1.23-8.33C92.46,274.63,93.58,273.3,95,273.41Z" transform="translate(-59.02 -60.37)"/><path class="cls-4" d="M73,274.44a9.53,9.53,0,0,1-1.58-3.78A3.5,3.5,0,0,1,73,267.11c1.86-1,4,.51,5.5,2a52.4,52.4,0,0,1,13.36,24.55c-3-3.26-7.44-6.09-10.81-9A42.17,42.17,0,0,1,73,274.44Z" transform="translate(-59.02 -60.37)"/><path class="cls-4" d="M146.07,334.45a218.7,218.7,0,0,1-24.43-11.79,94,94,0,0,1-8.76-5.44c-9.44-6.79-16.66-16.24-22.73-26.16,4.34,6.13,14.93,17.66,21,22.3,13.62,10.45,22.34,14.9,38.26,21.33C148.4,335.29,147.13,334.88,146.07,334.45Z" transform="translate(-59.02 -60.37)"/><path class="cls-4" d="M132,302c1.8,1.4,2.26,3.91,2.46,6.18a62.75,62.75,0,0,1-1.39,19.51,41,41,0,0,1-5.71-9,31.65,31.65,0,0,1-3.32-8.81c-.52-3.1-.48-7.17,1.77-9C128.08,299.64,130.29,300.72,132,302Z" transform="translate(-59.02 -60.37)"/><path class="cls-4" d="M83.73,321.45a5.67,5.67,0,0,0,2,.72,11,11,0,0,0,4.79-.47,30.91,30.91,0,0,0,15.92-10.13,6.44,6.44,0,0,0-3.77-.91,57.5,57.5,0,0,0-11,1.08c-3.1.57-11.64,2.71-9.72,7.67A4.26,4.26,0,0,0,83.73,321.45Z" transform="translate(-59.02 -60.37)"/><path class="cls-4" d="M80.16,300.22a39.17,39.17,0,0,1,9.61.7c1.51.3,3,.69,4.48,1.08l5.29,1.39a20.51,20.51,0,0,1-18.59,5,7.91,7.91,0,0,1-4.32-2.3,3.64,3.64,0,0,1-.28-4.56A5.27,5.27,0,0,1,80.16,300.22Z" transform="translate(-59.02 -60.37)"/><path class="cls-4" d="M103.82,283.27a2.5,2.5,0,0,1,1,.19,6.28,6.28,0,0,1,3.59,5.41,15.07,15.07,0,0,1-1.36,6.64,53.9,53.9,0,0,1-5.06,9.74,4.47,4.47,0,0,1-1.15-2.86,65.09,65.09,0,0,1-.54-12.32c.12-2.14.42-4.45,1.92-6A2.51,2.51,0,0,1,103.82,283.27Z" transform="translate(-59.02 -60.37)"/><path class="cls-4" d="M117.8,319.34a35.22,35.22,0,0,1-6.32-10.65c-1.16-3-3.75-13.16.43-15.08a3.06,3.06,0,0,1,3.14.83c2.62,2.32,3,6.22,3.12,9.73.09,2.71.13,5.42,0,8.13C118.17,314.35,118.54,317.46,117.8,319.34Z" transform="translate(-59.02 -60.37)"/><path class="cls-4" d="M98.29,332.35a5.9,5.9,0,0,0,2,2,5.36,5.36,0,0,0,4.83.22,12,12,0,0,0,4-2.95,35.15,35.15,0,0,0,7.81-12.14c-4.85,0-12.38.79-16.32,3.85C97.8,325.5,96.61,329.48,98.29,332.35Z" transform="translate(-59.02 -60.37)"/><path class="cls-4" d="M120.4,344.08a29.93,29.93,0,0,0,6.28-7.93,75.72,75.72,0,0,0,4.53-8.94c-3.9-.45-7.69,1.25-11.19,3a21.09,21.09,0,0,0-5.54,3.59A11.31,11.31,0,0,0,112.2,337a7.84,7.84,0,0,0-.66,5.41,4.9,4.9,0,0,0,3.82,3.6C117.2,346.29,119,345.27,120.4,344.08Z" transform="translate(-59.02 -60.37)"/><path class="cls-4" d="M129.9,183.82c2.32-2.5,5.79-.74,7.95,1.88,2.79,3.4,3.65,8.62,4.5,11.91,1.14,4.45,1.27,9.45,2.41,13.91-3.12-6.3-8.58-10.22-12.85-15.8a16.18,16.18,0,0,1-3.06-5.7A7.22,7.22,0,0,1,129.9,183.82Z" transform="translate(-59.02 -60.37)"/><path class="cls-4" d="M169.94,199.29a3.79,3.79,0,0,1,.29,2.79,7.28,7.28,0,0,1-4,4.51,23.11,23.11,0,0,1-6,1.68c-5.41,1-10.53,2-15.86,3.34a100.72,100.72,0,0,1,9.56-8.69,25.11,25.11,0,0,1,10.57-5.24C166.5,197.32,168.94,197.54,169.94,199.29Z" transform="translate(-59.02 -60.37)"/><path class="cls-4" d="M151.2,174.8a13.51,13.51,0,0,1,3.09-4.84,4.94,4.94,0,0,1,5.35-1c2.6,1.35,2.62,5,2.08,7.92a73.11,73.11,0,0,1-17.33,35c.37-6.51.82-13.46,1.51-19.68C146.57,186.15,148.72,180.36,151.2,174.8Z" transform="translate(-59.02 -60.37)"/><path class="cls-4" d="M140.47,306.82a305.24,305.24,0,0,1-5.95-37.53,129.06,129.06,0,0,1-.72-14.44c.27-16.29,7.13-36.6,12.54-47.42-4.06,9.75-9,31.65-9.51,42.3-1.16,24,.68,37.62,6,61.08C141.36,310.17,140.82,308.39,140.47,306.82Z" transform="translate(-59.02 -60.37)"/><path class="cls-4" d="M166.54,264.72c-.17,3.19-2.69,5.72-5.15,7.77a87.34,87.34,0,0,1-23.57,14,57.42,57.42,0,0,1,5.78-13.73c2.09-3.88,4.32-7.77,7.47-10.85s7.89-6.29,11.8-5.17C166.17,258.3,166.7,261.72,166.54,264.72Z" transform="translate(-59.02 -60.37)"/><path class="cls-4" d="M105.64,224.67a8,8,0,0,0,.72,2.83,15.44,15.44,0,0,0,4.36,5.13c6.79,5.66,15.53,9.69,24.39,10.24a9.08,9.08,0,0,0-2-5.07,80,80,0,0,0-10-11.74c-3.13-3.12-12.42-11.23-16.59-5.06A5.83,5.83,0,0,0,105.64,224.67Z" transform="translate(-59.02 -60.37)"/><path class="cls-4" d="M127.22,203.61a54.68,54.68,0,0,1,6.87,11.63c.86,2,1.6,4,2.33,6l2.64,7.2a28.72,28.72,0,0,1-20.63-17.39,11,11,0,0,1-.81-6.8c.6-2.24,2.72-4.21,5-4C124.57,200.5,126,202.08,127.22,203.61Z" transform="translate(-59.02 -60.37)"/><path class="cls-4" d="M165.64,217.29a3.55,3.55,0,0,1,.55,1.28c.74,3.11-.9,6.42-3.36,8.45s-5.62,3-8.73,3.74a74,74,0,0,1-15.25,2c.17-1.46,1.29-2.6,2.37-3.6A89.12,89.12,0,0,1,155,218.65c2.54-1.58,5.44-3.08,8.39-2.56A3.55,3.55,0,0,1,165.64,217.29Z" transform="translate(-59.02 -60.37)"/><path class="cls-4" d="M135.27,262.21a49.57,49.57,0,0,1,7.22-15.78c2.55-3.74,12.16-14.83,17.71-11.56,1.38.82,1.74,2.68,1.55,4.27-.59,4.89-4.77,8.44-8.71,11.37-3,2.27-6.13,4.48-9.31,6.56C141.32,258.64,138,261.56,135.27,262.21Z" transform="translate(-59.02 -60.37)"/><path class="cls-4" d="M104.72,250.15A8.15,8.15,0,0,0,104,254a7.58,7.58,0,0,0,3.61,5.75,17.23,17.23,0,0,0,6.61,2.28,49.4,49.4,0,0,0,20.22-.71c-3.92-5.56-10.8-13.62-17.47-15.71C112.22,244.1,106.68,245.92,104.72,250.15Z" transform="translate(-59.02 -60.37)"/><path class="cls-4" d="M108.87,285a42,42,0,0,0,14.15.9,106.5,106.5,0,0,0,13.91-1.93c-2.59-4.84-7.58-7.85-12.4-10.47A29.8,29.8,0,0,0,116,270a15.75,15.75,0,0,0-5.52-.07,11.07,11.07,0,0,0-6.75,3.56,6.92,6.92,0,0,0-1.1,7.29C103.77,283.05,106.36,284.28,108.87,285Z" transform="translate(-59.02 -60.37)"/><path class="cls-5" d="M88.4,239.37c-1.12-4.47-6-7-8-11.13-2.31-4.91-.07-10.65,2.17-15.59q5.1-11.25,10.19-22.5c1.1-2.43,2.25-4.93,4.22-6.73s5-2.73,7.36-1.52c4.62,2.36,2.92,9.23,4.07,14.28,2,8.76,13.67,13,14.93,21.87,1,6.86-4.88,13.27-4.13,20.16s7.65,11.38,10.22,17.79c2.67,6.64.35,14.12-2,20.88-1,3-2.32,6.33-5.16,7.79-3,1.57-6.71.44-9.93-.7-7.16-2.55-14.51-5.2-20.25-10.19s-9.57-12.94-7.55-20.27C85.93,248.72,89.61,244.18,88.4,239.37Z" transform="translate(-59.02 -60.37)"/><path class="cls-6" d="M86.9,214.33,99,229" transform="translate(-59.02 -60.37)"/><path class="cls-6" d="M110.45,213.44a203.15,203.15,0,0,0-5.26,29.78" transform="translate(-59.02 -60.37)"/><path class="cls-6" d="M92.81,259l8.25,6.71c4.67,3.8,9.35,7.6,14.1,11.3" transform="translate(-59.02 -60.37)"/><path class="cls-6" d="M119.83,254.06a124.28,124.28,0,0,0-2.78,21.39" transform="translate(-59.02 -60.37)"/><path class="cls-6" d="M112.25,236.29a141.56,141.56,0,0,0-3.52,21.47" transform="translate(-59.02 -60.37)"/><path class="cls-6" d="M92.57,249.36a133.74,133.74,0,0,0,15.23,8.56" transform="translate(-59.02 -60.37)"/><path class="cls-6" d="M94.71,201.7a72.11,72.11,0,0,0,4.51,15" transform="translate(-59.02 -60.37)"/><path class="cls-6" d="M104.4,201.51a161.63,161.63,0,0,1-4.68,17.29" transform="translate(-59.02 -60.37)"/><path class="cls-4" d="M105,254.49a129,129,0,0,1-5.11-63.6c-.48,2.79-.2,6-.19,8.81,0,3,.11,6,.29,9a169.92,169.92,0,0,0,2,17.86,175.53,175.53,0,0,0,9.42,34.65,172.87,172.87,0,0,0,16.3,32c1.4,2.16,2.86,4.29,4.36,6.38,1.15,1.62,4,4.11,3.68,6.21-.25,1.66-1.74,1.33-2.9.71a8.27,8.27,0,0,1-2.83-3.22C120.52,287.6,111,271.8,105,254.49Z" transform="translate(-59.02 -60.37)"/><polygon class="cls-7" points="261.62 209.63 121.12 209.63 121.12 180.25 121.12 0.5 261.62 0.5 261.62 209.63"/><rect class="cls-8" x="134.67" y="44.31" width="113.41" height="4.05"/><rect class="cls-8" x="166.4" y="33.5" width="49.93" height="4.05"/><rect class="cls-8" x="134.67" y="109.31" width="113.41" height="4.05"/><rect class="cls-8" x="134.67" y="98.49" width="113.41" height="4.05"/><rect class="cls-8" x="134.67" y="130.94" width="113.41" height="4.05"/><rect class="cls-8" x="134.67" y="141.76" width="113.41" height="4.05"/><rect class="cls-8" x="134.67" y="152.57" width="113.41" height="4.05"/><rect class="cls-8" x="134.67" y="163.39" width="113.41" height="4.05"/><rect class="cls-8" x="134.67" y="174.21" width="113.41" height="4.05"/><rect class="cls-8" x="134.67" y="120.12" width="113.41" height="4.05"/><rect class="cls-8" x="165.13" y="55.23" width="82.73" height="4.05"/><rect class="cls-8" x="165.13" y="66.04" width="82.73" height="4.05"/><rect class="cls-8" x="165.13" y="76.86" width="82.73" height="4.05"/><rect class="cls-8" x="165.13" y="87.68" width="82.73" height="4.05"/><rect class="cls-8" x="134.88" y="55.13" width="26.24" height="36.5"/><path class="cls-9" d="M119,217.66l106-20s4.07,1.9,5.91,5.21l85.19-17.41L290.5,336.23,137.19,392Z" transform="translate(-59.02 -60.37)"/><polygon class="cls-10" points="260.72 132.65 71.98 178.13 78.17 331.61 230.56 270.91 260.72 132.65"/><polygon class="cls-11" points="267.84 129.38 79.09 174.87 78.17 331.61 237.67 267.64 267.84 129.38"/><polygon class="cls-12" points="275.53 132.55 86.79 178.04 78.17 331.61 245.37 270.82 275.53 132.55"/><polygon class="cls-13" points="278.79 137.93 90.05 183.41 78.17 331.61 250.73 268.87 278.79 137.93"/><path class="cls-14" d="M152.17,257.73l110.16-26.48a9.18,9.18,0,0,1,6.26-5.82c4.84-1.2,86.45-20,86.45-20L314.16,327.63,137.19,392Z" transform="translate(-59.02 -60.37)"/><polygon class="cls-7" points="374.29 370.94 270.78 397.94 221.51 393.57 127.82 312.69 250.31 276.83 374.29 370.94"/><polygon class="cls-8" points="221.51 393.57 254.98 384.75 270.78 397.94 221.51 393.57"/><polygon class="cls-8" points="266.07 301.46 164.47 330.4 162.34 328.58 263.7 299.64 266.07 301.46"/><polygon class="cls-8" points="231.48 304.69 187.02 317.44 184.82 315.62 229.17 302.87 231.48 304.69"/><polygon class="cls-8" points="304.15 330.71 198.8 359.65 196.66 357.83 301.78 328.89 304.15 330.71"/><polygon class="cls-8" points="297.82 325.84 193.09 354.78 190.95 352.96 295.44 324.02 297.82 325.84"/><polygon class="cls-8" points="316.83 340.44 210.23 369.38 208.09 367.56 314.46 338.62 316.83 340.44"/><polygon class="cls-8" points="323.17 345.31 215.94 374.25 213.8 372.43 320.8 343.49 323.17 345.31"/><polygon class="cls-8" points="329.5 350.18 221.65 379.12 219.51 377.3 327.13 348.36 329.5 350.18"/><polygon class="cls-8" points="335.84 355.05 227.36 383.99 225.23 382.17 333.47 353.23 335.84 355.05"/><polygon class="cls-8" points="342.18 359.91 233.08 388.85 230.94 387.03 339.81 358.09 342.18 359.91"/><polygon class="cls-8" points="310.49 335.58 204.51 364.52 202.38 362.7 308.12 333.76 310.49 335.58"/><polygon class="cls-8" points="272.27 306.43 197.7 327.54 195.5 325.72 269.9 304.61 272.27 306.43"/><polygon class="cls-8" points="278.61 311.29 203.58 332.4 201.38 330.58 276.24 309.47 278.61 311.29"/><polygon class="cls-8" points="284.95 316.16 209.46 337.27 207.26 335.45 282.58 314.34 284.95 316.16"/><polygon class="cls-8" points="291.28 321.03 215.34 342.14 213.14 340.32 288.91 319.21 291.28 321.03"/><polygon class="cls-8" points="211.6 343.12 187.52 349.82 168.24 333.39 191.83 326.7 211.6 343.12"/><path class="cls-9" d="M453.83,99.84a7.35,7.35,0,0,0-8.78-5.51L337.11,119a7.45,7.45,0,0,0-1.26.42,52.42,52.42,0,1,0,2.69,14,7.17,7.17,0,0,0,1.84-.17l107.94-24.71A7.34,7.34,0,0,0,453.83,99.84Zm-158,78.33a42.94,42.94,0,1,1,32.28-51.44A43,43,0,0,1,295.86,178.17Z" transform="translate(-59.02 -60.37)"/><path class="cls-15" d="M328.14,126.73A42.94,42.94,0,1,1,276.7,94.45,43,43,0,0,1,328.14,126.73Z" transform="translate(-59.02 -60.37)"/><polygon class="cls-4" points="336.06 131.97 297.19 135.37 282.86 125.43 319.41 123.38 336.06 131.97"/><line class="cls-16" x1="331.09" y1="73.92" x2="351.26" y2="309.47"/><line class="cls-16" x1="326.55" y1="73.92" x2="297.82" y2="297.04"/><line class="cls-16" x1="326.55" y1="73.92" x2="331.09" y2="73.92"/><line class="cls-16" x1="291.28" y1="73.92" x2="314.83" y2="325.81"/><line class="cls-16" x1="289.19" y1="73.92" x2="260.99" y2="311.82"/><line class="cls-16" x1="289.19" y1="73.92" x2="291.28" y2="73.92"/><line class="cls-16" x1="299.55" y1="158.63" x2="337.96" y2="154.12"/><line class="cls-16" x1="302.4" y1="186.58" x2="340.37" y2="182.31"/><line class="cls-16" x1="305.05" y1="214.47" x2="342.75" y2="210.12"/><line class="cls-16" x1="306.58" y1="242.9" x2="345.14" y2="238.04"/><line class="cls-16" x1="309.6" y1="273.05" x2="347.58" y2="266.46"/></g></g></svg>